<?xml version="1.0" encoding="UTF-8" standalone="no"?>
<!DOCTYPE svg PUBLIC "-//W3C//DTD SVG 1.1//EN" "http://www.w3.org/Graphics/SVG/1.1/DTD/svg11.dtd">
<svg width="100%" height="100%" viewBox="0 0 128 128" version="1.1" xmlns="http://www.w3.org/2000/svg" xmlns:xlink="http://www.w3.org/1999/xlink" xml:space="preserve" xmlns:serif="http://www.serif.com/" style="fill-rule:evenodd;clip-rule:evenodd;stroke-linejoin:round;stroke-miterlimit:2;">
    <path d="M29.941,45.652C30.511,45.691 31.043,45.402 31.379,44.945L33.621,41.89L33.711,43.711C33.754,44.578 34.433,45.281 35.3,45.351C39.746,45.711 41.882,45.996 45.195,47.378C45.898,47.671 46.71,47.472 47.199,46.882L48.613,45.168L49.527,48.613C49.359,49.281 49.261,49.972 49.261,50.679C49.261,53.722 50.898,56.378 53.332,57.843C47.777,69.398 42.367,88.32 39.605,105.991C37.94,107.05 36.37,108.175 34.94,109.378C34.21,109.995 34.116,111.085 34.733,111.819C35.351,112.55 36.44,112.644 37.175,112.027C46.358,104.284 61.269,99.66 77.066,99.66C93.097,99.66 108.136,104.39 117.3,112.308C117.628,112.589 118.03,112.729 118.433,112.729C118.917,112.729 119.401,112.526 119.745,112.132C120.37,111.409 120.292,110.315 119.565,109.69C115.366,106.061 110.034,103.065 103.991,100.823L105.124,93.276L111.796,94.186C111.874,94.198 111.956,94.202 112.034,94.202C112.886,94.202 113.628,93.573 113.749,92.702C113.878,91.753 113.214,90.882 112.269,90.753L103.921,89.612C103.917,89.612 103.909,89.608 103.905,89.608L80.292,86.382C80.249,86.37 80.206,86.354 80.164,86.347C80.089,86.335 80.015,86.335 79.941,86.335L77.328,85.979L78.046,78.686C78.14,77.733 77.445,76.886 76.492,76.792C75.538,76.698 74.691,77.393 74.597,78.347L73.714,87.3C73.624,88.225 74.281,89.057 75.203,89.186L77.882,89.554L76.792,96.202C71.109,96.221 65.534,96.827 60.261,97.936C61.375,86.049 63.886,73.596 67.754,60.862C72.215,60.726 75.804,57.062 75.828,52.554L78.465,50.265L79.386,52.917C79.613,53.561 80.195,54.015 80.879,54.073C84.484,54.378 86.496,55.12 90.562,56.878C91.363,57.222 92.301,56.917 92.742,56.167L93.672,54.585L94.242,58.327C94.328,58.882 94.676,59.362 95.179,59.616C95.801,59.925 96.316,60.175 96.773,60.394C98.121,61.042 98.797,61.37 99.972,62.214C101.472,63.3 101.933,63.687 102.699,64.331L103.043,64.62C103.43,64.944 103.941,65.085 104.445,65.003C104.945,64.917 105.383,64.62 105.644,64.183L105.992,63.604L106.597,67.515C106.656,67.882 106.828,68.222 107.094,68.483C111.242,72.569 112.933,75.651 114.773,80.245C115.039,80.91 115.679,81.335 116.383,81.335C116.437,81.335 116.496,81.331 116.551,81.327C117.316,81.253 117.941,80.683 118.086,79.925C120.336,67.987 114.574,55.515 103.051,47.378C96.809,42.968 89.848,40.609 83.274,40.398C84.899,39.62 86.68,39.159 88.715,38.796C89.575,38.644 90.184,37.878 90.141,37.007L90.051,35.206L92.578,38.019C92.953,38.437 93.508,38.648 94.071,38.581C94.723,38.503 95.27,38.433 95.754,38.366C97.27,38.167 98.032,38.062 99.504,38.132C101.645,38.23 102.157,38.292 103.387,38.448C103.891,38.511 104.399,38.351 104.774,38.003C105.149,37.659 105.352,37.167 105.332,36.655L105.305,36.007L107.934,38.929C108.184,39.206 108.516,39.394 108.883,39.468C114.606,40.612 117.723,42.265 121.793,45.105C122.09,45.312 122.438,45.417 122.785,45.417C123.172,45.417 123.555,45.288 123.871,45.034C124.469,44.55 124.68,43.73 124.383,43.019C120.195,32.96 110.274,25.98 97.844,24.351C88.75,23.159 79.84,25.046 73.125,29.273C73.184,28.815 73.07,28.347 72.773,27.972L71.773,26.71L73.613,27.058C74.281,27.183 74.961,26.909 75.351,26.355C77.465,23.351 79.191,21.905 82.625,19.323C83.324,18.8 83.519,17.835 83.086,17.077L82.187,15.511L85.695,16.874C86.226,17.081 86.824,17.011 87.293,16.694C87.863,16.308 88.332,15.984 88.742,15.694C89.976,14.835 90.594,14.401 91.933,13.8C93.566,13.066 94.16,12.847 95.062,12.523L95.547,12.343C96.023,12.167 96.398,11.792 96.574,11.312C96.75,10.835 96.703,10.304 96.453,9.863L96.129,9.292L99.82,10.702C100.168,10.835 100.551,10.855 100.91,10.753C106.515,9.175 110.035,9.222 114.945,9.89C115.711,9.995 116.445,9.581 116.757,8.878C117.07,8.175 116.882,7.351 116.297,6.855C107.523,-0.594 94.926,-2.075 82.594,2.898C71.516,7.363 63.453,16.105 61.297,25.632C56.644,19.601 49.57,14.749 41.469,12.343C30.426,9.069 19.633,10.898 11.852,17.366C11.258,17.858 11.062,18.683 11.371,19.39C11.68,20.097 12.418,20.515 13.18,20.417C18.117,19.784 21.637,19.769 27.2,21.436C27.559,21.546 27.942,21.53 28.297,21.401L31.989,20.038L31.661,20.597C31.403,21.034 31.352,21.558 31.516,22.038C31.68,22.515 32.047,22.897 32.52,23.085L33.168,23.339C33.997,23.659 34.598,23.894 36.114,24.612C37.461,25.241 38.079,25.679 39.309,26.546C39.715,26.831 40.176,27.159 40.735,27.542C41.2,27.862 41.79,27.933 42.317,27.737L45.844,26.429L44.93,27.976C44.485,28.726 44.668,29.686 45.36,30.222C46.766,31.315 47.829,32.534 48.692,33.804C42.512,31.018 34.993,30.058 27.282,31.343C14.001,33.562 3.622,41.839 0.2,52.948C-0.027,53.682 0.258,54.479 0.903,54.905C1.192,55.096 1.524,55.19 1.856,55.19C2.258,55.19 2.657,55.049 2.977,54.776C6.782,51.541 9.731,49.596 15.293,47.928C15.652,47.819 15.965,47.6 16.188,47.299L18.52,44.143L18.555,44.791C18.582,45.295 18.824,45.76 19.223,46.069C19.621,46.377 20.133,46.498 20.625,46.397L21.289,46.264C22.172,46.084 22.813,45.952 24.477,45.698C25.91,45.498 26.703,45.53 28.145,45.588C28.652,45.612 29.238,45.635 29.942,45.651L29.941,45.652ZM54.253,47.129C54.98,46.437 55.87,46.008 56.835,45.847C57.483,47.234 58.507,48.41 59.792,49.265C59.37,50.265 59.136,51.363 59.136,52.515C59.136,53.441 59.292,54.328 59.573,55.164C58.96,55.433 58.312,55.59 57.636,55.59C54.933,55.59 52.733,53.39 52.733,50.687C52.726,49.324 53.269,48.062 54.253,47.129L54.253,47.129ZM64.358,37.422C67.061,37.422 69.26,39.605 69.26,42.289C69.26,42.98 69.108,43.648 68.838,44.269C68.401,44.199 67.956,44.152 67.499,44.152C65.284,44.152 63.268,45.023 61.772,46.437C60.381,45.551 59.495,44 59.495,42.289C59.491,39.605 61.674,37.422 64.358,37.422L64.358,37.422ZM97.663,92.262C97.671,92.262 97.675,92.266 97.683,92.266L101.694,92.812L100.663,99.691C94.378,97.726 87.456,96.539 80.292,96.265L81.315,90.027L97.663,92.262ZM43.475,103.77C46.331,87.024 51.44,69.614 56.631,58.985C56.959,59.024 57.287,59.051 57.623,59.051C58.928,59.051 60.182,58.731 61.33,58.153C62.154,59.055 63.17,59.778 64.315,60.25C60.322,73.488 57.764,86.43 56.697,98.777C51.928,100.027 47.463,101.707 43.474,103.769L43.475,103.77ZM67.495,57.418C67.222,57.418 66.96,57.379 66.698,57.336C66.667,57.332 66.636,57.328 66.608,57.328C64.331,56.906 62.597,54.914 62.597,52.515C62.597,49.812 64.796,47.613 67.499,47.613C70.182,47.613 72.366,49.812 72.366,52.515C72.362,55.218 70.179,57.418 67.495,57.418L67.495,57.418ZM115.042,72.84C113.765,70.726 112.183,68.695 109.933,66.429L108.679,58.332C108.565,57.609 108.015,57.035 107.3,56.898C106.589,56.761 105.855,57.082 105.483,57.711L103.706,60.687C103.284,60.359 102.765,59.968 101.999,59.414C100.573,58.39 99.659,57.953 98.28,57.285C98.05,57.172 97.804,57.054 97.534,56.922L96.362,49.254C96.253,48.527 95.698,47.953 94.976,47.812C94.253,47.679 93.526,48.004 93.155,48.636L90.53,53.109C87.476,51.832 85.292,51.101 82.296,50.746L80.894,46.722C80.706,46.179 80.257,45.765 79.702,45.617C79.151,45.468 78.558,45.605 78.12,45.984L74.925,48.758C74.37,47.656 73.581,46.699 72.624,45.941C80.769,42.035 91.733,43.629 101.046,50.211C107.777,54.957 114.304,63.047 115.042,72.84L115.042,72.84ZM97.394,27.793C106.046,28.925 113.324,32.886 117.898,38.742C115.675,37.679 113.242,36.855 110.132,36.195L104.664,30.117C104.175,29.574 103.398,29.394 102.722,29.671C102.046,29.949 101.617,30.617 101.644,31.347L101.789,34.796C101.246,34.753 100.605,34.718 99.664,34.675C97.882,34.593 96.914,34.722 95.3,34.937C95.066,34.968 94.82,34.999 94.55,35.035L89.371,29.269C88.882,28.722 88.101,28.546 87.421,28.824C86.742,29.101 86.316,29.777 86.351,30.511L86.605,35.679C82.886,36.484 79.726,37.839 76.828,40.921C75.414,41.207 74.039,41.613 72.718,42.132C72.675,39.867 71.726,37.82 70.211,36.339C70.25,36.222 70.281,36.105 70.324,35.984C76.336,29.585 86.695,26.39 97.394,27.792L97.394,27.793ZM64.253,28.867C65.198,19.468 72.905,10.539 83.89,6.109C92.632,2.585 101.476,2.613 108.632,5.999C106.159,6.062 103.609,6.437 100.527,7.269L92.855,4.335C92.171,4.074 91.398,4.273 90.921,4.824C90.444,5.378 90.366,6.171 90.73,6.808L92.44,9.816C91.948,10.015 91.355,10.269 90.511,10.648C88.878,11.382 88.081,11.941 86.761,12.859C86.558,13.003 86.339,13.156 86.097,13.32L78.874,10.515C78.19,10.249 77.413,10.445 76.933,10.999C76.452,11.554 76.378,12.355 76.741,12.992L79.319,17.488C76.722,19.488 75.015,21.015 73.175,23.46L67.847,22.456C67.14,22.324 66.417,22.644 66.042,23.261C65.667,23.882 65.718,24.667 66.167,25.234L69.37,29.273C68.526,30.996 67.839,32.632 67.28,34.183C67.21,34.261 67.148,34.343 67.081,34.421C66.69,34.285 66.288,34.179 65.87,34.101C65.417,32.742 64.843,31.41 64.159,30.109C64.163,29.707 64.191,29.304 64.253,28.867L64.253,28.867ZM48.655,28.48L51.311,23.988C51.686,23.355 51.62,22.558 51.151,21.996C50.678,21.433 49.905,21.23 49.221,21.484L41.964,24.175C41.729,24.011 41.514,23.859 41.311,23.718C40.046,22.824 39.21,22.234 37.592,21.48C36.753,21.082 36.163,20.82 35.671,20.609L37.428,17.613C37.799,16.98 37.733,16.187 37.264,15.625C36.795,15.066 36.026,14.859 35.338,15.113L27.635,17.953C24.585,17.074 22.046,16.671 19.581,16.578C25.678,13.808 32.999,13.445 40.483,15.667C50.678,18.695 59.053,25.89 62.253,34.237C59.706,34.905 57.628,36.745 56.647,39.152C55.897,38.417 55.089,37.737 54.241,37.093C53.124,34.277 51.573,31.155 48.655,28.48L48.655,28.48ZM23.967,42.277C23.049,42.418 22.42,42.523 21.897,42.621L21.709,39.16C21.67,38.429 21.178,37.804 20.479,37.594C19.779,37.383 19.022,37.633 18.588,38.222L13.733,44.789C10.709,45.734 8.369,46.785 6.256,48.058C10.623,41.242 18.408,36.343 27.842,34.769C38.834,32.933 49.338,36.023 55.217,42.676C54.041,43.027 52.951,43.64 52.014,44.488L51.096,41.027C50.932,40.398 50.428,39.918 49.791,39.777C49.155,39.637 48.498,39.863 48.084,40.367L45.326,43.707C42.596,42.687 40.405,42.328 37.092,42.027L36.838,36.843C36.803,36.113 36.311,35.48 35.608,35.269C34.905,35.058 34.147,35.312 33.713,35.902L29.119,42.16C28.811,42.148 28.529,42.136 28.268,42.129C26.744,42.07 25.733,42.031 23.967,42.277L23.967,42.277ZM123.959,112.898C124.467,113.711 124.217,114.777 123.404,115.285C121.354,116.562 118.627,118.031 115.725,118.031C112.002,118.031 108.514,115.816 105.139,113.675C102.049,111.714 99.127,109.859 96.412,109.859C93.678,109.859 90.744,111.718 87.643,113.683C84.271,115.82 80.783,118.027 77.069,118.027C73.346,118.027 69.858,115.812 66.487,113.671C63.397,111.711 60.475,109.855 57.76,109.855C55.045,109.855 52.123,111.711 49.033,113.671C45.658,115.812 42.17,118.027 38.447,118.027C35.713,118.027 33.205,116.746 31.322,115.629C30.502,115.14 30.229,114.078 30.717,113.257C31.205,112.433 32.268,112.164 33.092,112.652C35.322,113.976 36.975,114.566 38.447,114.566C41.162,114.566 44.084,112.711 47.174,110.75C50.549,108.609 54.037,106.394 57.76,106.394C61.483,106.394 64.971,108.609 68.342,110.75C71.432,112.711 74.354,114.566 77.069,114.566C79.779,114.566 82.697,112.715 85.791,110.758C89.174,108.613 92.674,106.398 96.416,106.398C100.139,106.398 103.627,108.613 107.002,110.754C110.092,112.715 113.014,114.57 115.729,114.57C117.307,114.57 119.112,113.886 121.577,112.347C122.385,111.843 123.452,112.09 123.959,112.898L123.959,112.898ZM127.088,122.82C126.619,123.121 126.154,123.429 125.69,123.738C122.522,125.832 119.244,127.996 115.725,127.996C112.002,127.996 108.514,125.773 105.139,123.625C102.049,121.656 99.127,119.797 96.412,119.797C93.678,119.797 90.748,121.66 87.647,123.636C84.275,125.781 80.787,128 77.069,128C73.346,128 69.858,125.777 66.483,123.629C63.393,121.66 60.471,119.8 57.756,119.8C55.041,119.8 52.123,121.66 49.029,123.629C45.654,125.777 42.166,128 38.443,128C34.873,128 31.553,125.785 28.345,123.64L27.392,123.007C26.595,122.48 26.373,121.406 26.9,120.609C27.427,119.812 28.502,119.593 29.298,120.117L30.267,120.761C33.048,122.617 35.923,124.539 38.443,124.539C41.158,124.539 44.076,122.679 47.17,120.711C50.545,118.562 54.033,116.339 57.756,116.339C61.478,116.339 64.966,118.562 68.342,120.711C71.431,122.679 74.353,124.539 77.068,124.539C79.779,124.539 82.697,122.679 85.787,120.714C89.17,118.562 92.67,116.336 96.412,116.336C100.135,116.336 103.623,118.558 106.998,120.707C110.088,122.675 113.01,124.535 115.725,124.535C118.201,124.535 120.908,122.746 123.779,120.847C124.256,120.531 124.732,120.218 125.209,119.91C126.014,119.39 127.084,119.625 127.603,120.425C128.123,121.23 127.889,122.3 127.088,122.82L127.088,122.82Z" style="fill:white;fill-rule:nonzero;"/>
</svg>
